<?xml version="1.0" encoding="UTF-8"?>
<svg id="trace" xmlns="http://www.w3.org/2000/svg" viewBox="0 0 1107.42 210.71">
  <defs>
    <style>
      .cls-1 {
        font-size: 104px;
        letter-spacing: 0em;
      }

      .cls-1, .cls-2 {
        font-family: Garamond-Bold, Garamond;
        font-weight: 700;
      }

      .cls-3, .cls-4 {
        stroke: #000;
        stroke-miterlimit: 10;
      }

      .cls-5 {
        letter-spacing: 0em;
      }

      .cls-2 {
        font-size: 57px;
      }

      .cls-4 {
        fill: #fff;
      }
    </style>
  </defs>
  <path class="cls-3" d="m74.42,156.93v23.26s5.17,5.26,12.09,0c0,0,.91-3.26,8.91-1.26,0,0,5,5,6-3,0,0,19-3,5-8,0,0-20.02-3.5-22.26-11,0,0,42.76,6.5,61.76-17.5,0,0,25-23,53-8l5,3,4.5,2.33s21.5,3.67,20.5,20.67c0,0-.83,5.02,10.59-2.99,0,0,12.24-2.99,16.83,0,0,0,7.59-14.01,13.59-14.01,0,0,4,0,7-8,0,0-1-3-7,2l-10,3-13,2s-6,3-14-1l-5-2-8-6-7.8-4.08-7.04-5.42-4.15-3.5-4-6,.72-10.34-.72-16.66s33,0,33-52c0,0-3-9,8-2,0,0,22,17,41,19,0,0,24,6,31,3,0,0,5-4,19-1,0,0,22,0,6-8l-8-2s-5,0-11-11-6-10-22-16c0,0-19,0-25,3,0,0-8,5-17-6,0,0-18.67-21.17-44.33-4.59l-4.67,3.59s-9,25-32,0c0,0-25-11-55,2,0,0-9-4-28,15l-11,5-8,5-11,7s-10,9-14,25c-1.12,1.8-2.29,3.57-3.46,5.34-2.42,3.64-4.91,7.24-7.56,10.72-1.41,1.85-2.79,3.73-4.37,5.43-1.15,1.24-2.44,2.38-3.92,3.21-.42.24-.85.53-.92,1.05-.1.79.51,1.24,1.24,1.24.2,0,.4,1.7.41,1.86.02.55-.17,1.04-.65,1.34-.18.11-.63.12-.75.24-.24.23-.01.7,0,.97.03.42-.06.86-.13,1.27-.2,1.24-1.08,2.05-2.3,2.26-.38.07-.46-.01-.58.31-.08.2,0,.62,0,.83s.14,1.03,0,1.22c0,0-5,6.71-4,18.71,0,0-21,14.24-15.5,25.12,0,0,1.5,1.88,4.5-.12s12-11,12-11c0,0,0-3,2,0,0,0,6,2,10-10,0,0,5-6,24-10,0,0,6,6,0,11,0,0-24,11-26,18s11,16,13,11l5-2,5-3s5-6,10-3h11s3,2,2.5,5.5Z"/>
  <path class="cls-4" d="m303.45,53.27s.47-5.84-.53-6.84c-.19-.19-.38-.37-.58-.55-2.05-1.92-4.14-3.81-6.22-5.71-1.1-1-2.2-2.01-3.3-3.01-.39-.35-.77-.72-1.17-1.07-.77-.68-1.12-1.44-1.57-2.35-1.05-2.11-2.11-4.22-3.16-6.32-4-7-8-4-8-4-.28.14-.54.3-.78.5-1.19,1-1.17,2.55-.67,3.91.18.48.4.94.66,1.39.18.33.36.73.7.93.47.28,1.08.18,1.6.34.48.15.91.43,1.21.84.64.91.69,2.14.6,3.21-.04.54-.06,1.2-.28,1.7-.2.46-.56.83-.83,1.24-.41.62-.75,1.28-1.03,1.98-.48,1.22-.74,2.51-.8,3.82-.09,2.19.33,4.54,1.28,6.53,0,0,16.41,4.28,22.88,3.44Z"/>
  <text class="cls-2" transform="translate(350.03 79.06)"><tspan class="cls-5" x="0" y="0">T</tspan><tspan x="39.74" y="0">he</tspan></text>
  <text class="cls-1" transform="translate(349.59 172.02)"><tspan x="0" y="0">Galloping Goose</tspan></text>
</svg>