<?xml version="1.0" encoding="UTF-8"?><svg id="a" xmlns="http://www.w3.org/2000/svg" viewBox="0 0 1300.5 634.83"><defs><style>.b{letter-spacing:0em;}.c{font-size:429.75px;}.c,.d{font-family:SourceSansRoman-Bold, 'Source Sans Variable';font-variation-settings:'wght' 700;font-weight:700;}.c,.d,.e{fill:#fff;stroke:#fff;}.f{letter-spacing:0em;}.g{letter-spacing:-.04em;}.h{letter-spacing:-.03em;}.i{letter-spacing:0em;}.j{letter-spacing:-.03em;}.d{font-size:130px;}.e{stroke-miterlimit:10;}.k{letter-spacing:-.02em;}</style></defs><path class="e" d="m422.73,211.65c4.22-14.59,6.48-29.99,6.48-45.94C429.21,74.48,355.24.5,264,.5S98.79,74.48,98.79,165.71c0,15.83,2.22,31.16,6.39,45.65C45.41,223.83.5,276.85.5,340.34c0,72.76,58.98,131.74,131.74,131.74,22.28,0,43.25-5.56,61.64-15.32l-65.88-80.83c-2.08-2.55-1.7-6.31.85-8.39,2.55-2.08,6.31-1.7,8.39.85l67.02,82.23c19.45-12.73,35.33-30.44,45.81-51.34v-180.77c0-7.9,6.4-14.3,14.3-14.3s14.3,6.4,14.3,14.3v184.91c6.28,11.5,14.22,21.96,23.51,31.05l78.08-104.42c1.97-2.63,5.7-3.18,8.34-1.2,2.64,1.97,3.18,5.71,1.2,8.34l-78.71,105.25c22.69,18.51,51.64,29.63,83.2,29.63,72.76,0,131.76-58.98,131.76-131.74,0-63.01-44.25-115.7-103.35-128.69Z"/><path class="e" d="m263.67,330.92c-.26,0-.5,0-.76-.02-.21,3.12-.33,6.27-.33,9.44,0,4.62.24,9.18.72,13.68.48-4.51.72-9.06.72-13.68,0-3.17-.12-6.32-.33-9.42Z"/><path class="e" d="m278.68,465.91v-62.49c-8.17-14.95-13.56-31.64-15.39-49.4-1.66,16.13-6.26,31.39-13.22,45.26v107.55l-45.81-56.21c-3.36,2.2-6.82,4.24-10.38,6.13l56.19,68.94v94.32c0,7.9,6.4,14.3,14.3,14.3s14.3-6.4,14.3-14.3v-134.21l32.43-43.37c-3.09-2.52-6.07-5.18-8.92-7.97l-23.51,31.44Z"/><text class="c" transform="translate(467.15 384.26)"><tspan class="g" x="0" y="0">T</tspan><tspan class="b" x="220.9" y="0">r</tspan><tspan x="387.64" y="0">ee</tspan></text><text class="d" transform="translate(546.07 501.74)"><tspan x="0" y="0">Ph</tspan><tspan class="h" x="151.71" y="0">o</tspan><tspan class="k" x="220.48" y="0">t</tspan><tspan x="267.93" y="0">og</tspan><tspan class="j" x="409.5" y="0">r</tspan><tspan x="457.6" y="0">a</tspan><tspan class="i" x="526.11" y="0">p</tspan><tspan class="f" x="599.56" y="0">hy</tspan></text></svg>